<svg width="64" height="72" viewBox="0 0 64 72" fill="none" xmlns="http://www.w3.org/2000/svg">
<g clip-path="url(#clip0_1150_809)">
<circle cx="32" cy="32" r="32" fill="#2D2B29"/>
<path d="M32 37.625C34.4853 37.625 36.5 35.6103 36.5 33.125C36.5 30.6397 34.4853 28.625 32 28.625C29.5147 28.625 27.5 30.6397 27.5 33.125C27.5 35.6103 29.5147 37.625 32 37.625Z" fill="white"/>
<path d="M44.375 24.125H40.2266C40.0156 24.125 39.7541 23.9886 39.5502 23.7734L37.7262 20.8948C37.6974 20.8492 37.6652 20.8057 37.6299 20.7648C36.9999 20.03 36.1484 19.625 35.2344 19.625H28.7656C27.8516 19.625 27.0001 20.03 26.3701 20.7648C26.3348 20.8057 26.3026 20.8492 26.2738 20.8948L24.4498 23.7777C24.2937 23.9478 24.0744 24.1292 23.8438 24.1292V23.5667C23.8438 23.2684 23.7252 22.9822 23.5142 22.7712C23.3033 22.5602 23.0171 22.4417 22.7188 22.4417H21.0312C20.7329 22.4417 20.4467 22.5602 20.2358 22.7712C20.0248 22.9822 19.9062 23.2684 19.9062 23.5667V24.1292H19.625C18.7302 24.1301 17.8723 24.486 17.2395 25.1188C16.6068 25.7515 16.2509 26.6094 16.25 27.5042V41C16.2509 41.8948 16.6068 42.7527 17.2395 43.3855C17.8723 44.0182 18.7302 44.3741 19.625 44.375H44.375C45.2698 44.3741 46.1277 44.0182 46.7605 43.3855C47.3932 42.7527 47.7491 41.8948 47.75 41V27.5C47.7491 26.6052 47.3932 25.7473 46.7605 25.1145C46.1277 24.4818 45.2698 24.1259 44.375 24.125ZM32 39.875C30.665 39.875 29.3599 39.4791 28.2499 38.7374C27.1399 37.9957 26.2747 36.9415 25.7638 35.7081C25.2529 34.4747 25.1192 33.1175 25.3797 31.8081C25.6402 30.4988 26.283 29.296 27.227 28.352C28.171 27.408 29.3738 26.7652 30.6831 26.5047C31.9925 26.2442 33.3497 26.3779 34.5831 26.8888C35.8165 27.3997 36.8707 28.2649 37.6124 29.3749C38.3541 30.4849 38.75 31.79 38.75 33.125C38.748 34.9146 38.0361 36.6303 36.7707 37.8957C35.5053 39.1611 33.7896 39.873 32 39.875Z" fill="white"/>
</g>
<path d="M32 72L22 62L42 62L32 72Z" fill="#2D2B29"/>
<defs>
<clipPath id="clip0_1150_809">
<rect width="64" height="64" fill="white"/>
</clipPath>
</defs>
</svg>
