<svg width="36" height="36" viewBox="0 0 36 36" fill="none" xmlns="http://www.w3.org/2000/svg">
<g id="ion:camera">
<path id="Vector" d="M18 23.625C20.4853 23.625 22.5 21.6103 22.5 19.125C22.5 16.6397 20.4853 14.625 18 14.625C15.5147 14.625 13.5 16.6397 13.5 19.125C13.5 21.6103 15.5147 23.625 18 23.625Z" fill="#2D2B29"/>
<path id="Vector_2" d="M30.375 10.125H26.2266C26.0156 10.125 25.7541 9.98859 25.5502 9.77344L23.7262 6.89484C23.6974 6.84916 23.6652 6.80568 23.6299 6.76477C22.9999 6.03 22.1484 5.625 21.2344 5.625H14.7656C13.8516 5.625 13.0001 6.03 12.3701 6.76477C12.3348 6.80568 12.3026 6.84916 12.2738 6.89484L10.4498 9.77766C10.2937 9.94781 10.0744 10.1292 9.84375 10.1292V9.56672C9.84375 9.26835 9.72522 8.9822 9.51425 8.77122C9.30327 8.56025 9.01712 8.44172 8.71875 8.44172H7.03125C6.73288 8.44172 6.44673 8.56025 6.23575 8.77122C6.02478 8.9822 5.90625 9.26835 5.90625 9.56672V10.1292H5.625C4.73018 10.1301 3.87228 10.486 3.23954 11.1188C2.60681 11.7515 2.25093 12.6094 2.25 13.5042V27C2.25093 27.8948 2.60681 28.7527 3.23954 29.3855C3.87228 30.0182 4.73018 30.3741 5.625 30.375H30.375C31.2698 30.3741 32.1277 30.0182 32.7605 29.3855C33.3932 28.7527 33.7491 27.8948 33.75 27V13.5C33.7491 12.6052 33.3932 11.7473 32.7605 11.1145C32.1277 10.4818 31.2698 10.1259 30.375 10.125ZM18 25.875C16.665 25.875 15.3599 25.4791 14.2499 24.7374C13.1399 23.9957 12.2747 22.9415 11.7638 21.7081C11.2529 20.4747 11.1192 19.1175 11.3797 17.8081C11.6402 16.4988 12.283 15.296 13.227 14.352C14.171 13.408 15.3738 12.7652 16.6831 12.5047C17.9925 12.2442 19.3497 12.3779 20.5831 12.8888C21.8165 13.3997 22.8707 14.2649 23.6124 15.3749C24.3541 16.4849 24.75 17.79 24.75 19.125C24.748 20.9146 24.0361 22.6303 22.7707 23.8957C21.5053 25.1611 19.7896 25.873 18 25.875Z" fill="#2D2B29"/>
</g>
</svg>
