<svg width="120" height="32" viewBox="0 0 120 32" fill="none" xmlns="http://www.w3.org/2000/svg">
<path d="M15.744 30.72C14.3147 30.72 13.056 30.4747 11.968 29.984C10.88 29.4933 10.0267 28.8213 9.408 27.968C8.78933 27.0933 8.48 26.1013 8.48 24.992C8.48 23.8827 8.81067 22.8907 9.472 22.016C10.1547 21.1413 11.0507 20.4587 12.16 19.968C13.2907 19.456 14.528 19.2 15.872 19.2C17.2587 19.2 18.5067 19.4027 19.616 19.808C20.7253 20.2133 21.6 20.8213 22.24 21.632C22.88 22.4213 23.2 23.4347 23.2 24.672C23.2 25.8453 22.8693 26.8907 22.208 27.808C21.568 28.7253 20.6827 29.44 19.552 29.952C18.4427 30.464 17.1733 30.72 15.744 30.72ZM4.288 17.024C3.81867 17.1307 3.47733 17.1627 3.264 17.12C3.072 17.0773 2.85867 16.9707 2.624 16.8C2.496 16.6933 2.304 16.5333 2.048 16.32C1.81333 16.1067 1.57867 15.8933 1.344 15.68C1.13067 15.4667 1.00267 15.3067 0.96 15.2C0.917333 15.0293 1.01333 14.784 1.248 14.464C1.48267 14.144 1.728 13.9947 1.984 14.016C2.66667 14.1653 3.47733 14.2827 4.416 14.368C5.376 14.432 6.38933 14.4747 7.456 14.496C8.16 14.496 8.928 14.496 9.76 14.496C10.592 14.496 11.4347 14.4853 12.288 14.464L12.256 11.84C12.256 11.1573 12.2027 10.6453 12.096 10.304C12.0107 9.94133 11.7973 9.632 11.456 9.376C11.2853 9.248 11.1573 9.12 11.072 8.992C11.008 8.864 11.0187 8.704 11.104 8.512C11.2747 8.14933 11.488 7.91467 11.744 7.808C12.0213 7.70133 12.2987 7.68 12.576 7.744C12.8747 7.808 13.2373 7.94667 13.664 8.16C14.112 8.352 14.4427 8.53333 14.656 8.704C15.104 9.024 15.3387 9.26933 15.36 9.44C15.2747 9.78133 15.2107 10.1547 15.168 10.56C15.1467 10.9653 15.1253 11.3707 15.104 11.776L15.008 14.4C16.1813 14.3573 17.3013 14.3147 18.368 14.272C19.4347 14.2293 20.352 14.1867 21.12 14.144C22.4427 14.0587 23.6693 13.952 24.8 13.824C25.952 13.696 26.8587 13.5467 27.52 13.376C27.9467 13.2693 28.2347 13.2373 28.384 13.28C28.5547 13.3013 28.7147 13.4293 28.864 13.664C29.0133 13.8773 29.1733 14.176 29.344 14.56C29.5147 14.9227 29.6 15.1787 29.6 15.328C29.5787 15.5627 29.4187 15.7973 29.12 16.032C28.8427 16.2453 28.64 16.352 28.512 16.352C27.9147 16.288 27.328 16.2453 26.752 16.224C26.1973 16.1813 25.536 16.1493 24.768 16.128C24.0213 16.1067 23.0507 16.096 21.856 16.096C20.64 16.096 19.264 16.1173 17.728 16.16C16.192 16.1813 14.656 16.224 13.12 16.288C11.584 16.352 10.1973 16.416 8.96 16.48C8.04267 16.5227 7.2 16.5973 6.432 16.704C5.664 16.7893 4.94933 16.896 4.288 17.024ZM20.224 12.32C20.0107 12.32 19.8507 12.192 19.744 11.936C19.6587 11.6587 19.6587 11.3387 19.744 10.976C19.8293 10.6133 19.936 10.048 20.064 9.28C20.2133 8.512 20.352 7.69066 20.48 6.816C20.6293 5.94133 20.736 5.17333 20.8 4.512C20.8213 4.34133 20.8 4.23467 20.736 4.192C20.672 4.14933 20.5227 4.128 20.288 4.128C19.392 4.14933 18.5707 4.17067 17.824 4.192C17.0987 4.21333 16.3733 4.24533 15.648 4.288C14.9227 4.30933 14.1013 4.352 13.184 4.416C12.6293 4.43733 11.9787 4.50133 11.232 4.608C10.4853 4.69333 9.83467 4.78933 9.28 4.896C8.87467 4.98133 8.58667 5.01333 8.416 4.992C8.26667 4.94933 8.096 4.864 7.904 4.736C7.648 4.544 7.33867 4.27733 6.976 3.936C6.63467 3.59467 6.44267 3.37067 6.4 3.264C6.35733 3.072 6.44267 2.82666 6.656 2.528C6.89067 2.208 7.15733 2.05866 7.456 2.08C7.88267 2.18666 8.50133 2.272 9.312 2.336C10.144 2.37867 10.9227 2.4 11.648 2.4C12.352 2.4 12.9387 2.4 13.408 2.4C13.8987 2.37867 14.3467 2.368 14.752 2.368C15.1573 2.34667 15.6053 2.32533 16.096 2.304C16.608 2.26133 17.248 2.21866 18.016 2.176C18.7413 2.13333 19.36 2.06933 19.872 1.984C20.384 1.87733 20.8 1.77067 21.12 1.664C21.312 1.6 21.472 1.57867 21.6 1.6C21.728 1.6 21.8773 1.632 22.048 1.696L24.256 2.432C24.4053 2.47467 24.5227 2.57067 24.608 2.72C24.6933 2.848 24.6827 3.05067 24.576 3.328C24.4693 3.648 24.3413 4.05333 24.192 4.544C24.0427 5.01333 23.936 5.36533 23.872 5.6C23.6587 6.38933 23.4133 7.24267 23.136 8.16C22.8587 9.056 22.5813 9.86667 22.304 10.592C21.856 11.7867 21.1627 12.3627 20.224 12.32ZM15.808 28.512C17.0027 28.512 17.9947 28.1813 18.784 27.52C19.5947 26.8587 20 25.9627 20 24.832C20 23.6587 19.6053 22.7627 18.816 22.144C18.048 21.5253 17.0987 21.216 15.968 21.216C14.7307 21.216 13.696 21.5573 12.864 22.24C12.032 22.9013 11.616 23.808 11.616 24.96C11.616 26.0267 12.0213 26.8907 12.832 27.552C13.6427 28.192 14.6347 28.512 15.808 28.512ZM50.2068 22.4C49.8228 22.4 49.5774 22.1867 49.4708 21.76C49.3641 21.2693 49.3001 20.704 49.2788 20.064C49.2574 19.424 49.2468 18.8907 49.2468 18.464C49.2468 18.3573 49.2468 18.2827 49.2468 18.24V4.8C49.2468 4.20267 49.2148 3.75467 49.1508 3.456C49.1081 3.15733 48.9907 2.912 48.7987 2.72C48.6068 2.50667 48.3081 2.272 47.9028 2.016C47.6894 1.888 47.5294 1.73867 47.4228 1.568C47.3374 1.376 47.3481 1.17333 47.4548 0.959999C47.6254 0.597332 47.8494 0.362665 48.1268 0.255999C48.4041 0.149332 48.7134 0.127999 49.0548 0.191999C49.5454 0.277332 50.0574 0.447998 50.5908 0.703999C51.1241 0.938665 51.5614 1.17333 51.9028 1.408C52.2868 1.68533 52.4788 1.952 52.4788 2.208C52.4361 2.48533 52.3828 2.86933 52.3188 3.36C52.2548 3.85067 52.2228 4.34133 52.2228 4.832V10.944C53.0548 10.8587 53.8014 10.7307 54.4628 10.56C55.1454 10.368 55.6254 10.2293 55.9028 10.144C56.1374 10.0587 56.3294 10.048 56.4788 10.112C56.6281 10.1547 56.7454 10.24 56.8308 10.368C57.0014 10.5813 57.1721 10.88 57.3428 11.264C57.5134 11.648 57.5988 11.9147 57.5988 12.064C57.5988 12.2773 57.4601 12.4907 57.1828 12.704C56.9268 12.9173 56.7241 13.024 56.5748 13.024C55.9134 12.9173 55.1988 12.8533 54.4308 12.832C53.6841 12.7893 52.9481 12.768 52.2228 12.768V18.08C52.2228 18.6133 52.1588 19.2107 52.0308 19.872C51.9241 20.5333 51.7214 21.12 51.4228 21.632C51.1241 22.1227 50.7188 22.3787 50.2068 22.4ZM32.1267 20.224C31.6574 20.4373 31.1881 20.512 30.7188 20.448C30.2707 20.3627 30.0147 20.192 29.9507 19.936C29.9294 19.8293 29.9401 19.7013 29.9827 19.552C30.0254 19.3813 30.1747 19.2213 30.4308 19.072C31.2628 18.6027 32.2014 17.9413 33.2468 17.088C34.2921 16.2347 35.3374 15.2427 36.3828 14.112C37.4281 12.9813 38.3668 11.776 39.1988 10.496C40.0308 9.19467 40.6494 7.872 41.0548 6.528C41.0974 6.336 41.0121 6.24 40.7988 6.24C40.3294 6.26133 39.7641 6.29333 39.1028 6.336C38.4414 6.35733 37.9188 6.38933 37.5347 6.432C36.9374 6.47467 36.3081 6.528 35.6468 6.592C34.9854 6.656 34.3348 6.752 33.6948 6.88C33.2894 6.944 33.0014 6.96533 32.8307 6.944C32.6601 6.92267 32.4574 6.80533 32.2228 6.592C32.0734 6.464 31.8494 6.26133 31.5508 5.984C31.2521 5.68533 31.0494 5.44 30.9427 5.248C30.9001 5.056 30.9854 4.832 31.1988 4.576C31.4121 4.29866 31.6041 4.16 31.7747 4.16C32.5641 4.352 33.4494 4.45867 34.4308 4.48C35.4121 4.50133 36.3188 4.49067 37.1508 4.448C38.1108 4.40533 39.0281 4.33067 39.9028 4.224C40.7988 4.096 41.3961 3.94667 41.6948 3.776C41.9508 3.66933 42.1854 3.648 42.3988 3.712C42.7401 3.81867 43.1454 3.968 43.6148 4.16C44.0841 4.33066 44.4574 4.46933 44.7348 4.576C44.9054 4.64 45.0228 4.736 45.0868 4.864C45.1508 4.97066 45.1294 5.14133 45.0228 5.376C44.9588 5.54667 44.8521 5.80267 44.7028 6.144C44.5534 6.48533 44.3934 6.83733 44.2228 7.2C44.0521 7.56267 43.9028 7.872 43.7748 8.128C43.0921 9.55733 42.1641 11.04 40.9908 12.576C39.8174 14.112 38.4734 15.552 36.9588 16.896C35.4654 18.24 33.8547 19.3493 32.1267 20.224ZM39.4868 29.92C39.1668 29.8987 38.8041 29.8027 38.3988 29.632C38.0148 29.4613 37.6841 29.1627 37.4068 28.736C37.1294 28.3307 36.9908 27.7653 36.9908 27.04V24.704C36.9908 24.064 36.9694 23.5947 36.9268 23.296C36.9054 22.976 36.8201 22.72 36.6708 22.528C36.5214 22.336 36.2654 22.1227 35.9028 21.888C35.7108 21.76 35.5828 21.6213 35.5188 21.472C35.4761 21.3227 35.5081 21.1307 35.6148 20.896C35.7854 20.5333 36.0094 20.3093 36.2868 20.224C36.5854 20.1387 36.8841 20.1173 37.1828 20.16C37.5454 20.224 37.9401 20.3413 38.3668 20.512C38.8148 20.6613 39.1988 20.832 39.5188 21.024C39.7534 21.1733 39.9454 21.3227 40.0948 21.472C40.2654 21.6 40.3508 21.7493 40.3508 21.92C40.2654 22.2827 40.2014 22.7093 40.1588 23.2C40.1161 23.6907 40.0948 24.1387 40.0948 24.544V26.656C40.0948 27.1893 40.1694 27.52 40.3188 27.648C40.4681 27.7547 40.7028 27.8187 41.0228 27.84C41.8334 27.8613 42.6868 27.872 43.5828 27.872C44.5001 27.872 45.5774 27.84 46.8148 27.776C48.2014 27.712 49.3961 27.5733 50.3988 27.36C51.4014 27.1467 52.0628 26.9973 52.3828 26.912C52.6174 26.8267 52.8094 26.816 52.9588 26.88C53.1081 26.944 53.2254 27.04 53.3108 27.168C53.4814 27.3813 53.6521 27.6693 53.8228 28.032C53.9934 28.3947 54.0788 28.64 54.0788 28.768C54.0788 28.9387 53.9508 29.152 53.6948 29.408C53.4601 29.664 53.2681 29.792 53.1188 29.792C52.8414 29.7707 52.4041 29.7493 51.8068 29.728C51.2094 29.728 50.5268 29.728 49.7588 29.728C48.9908 29.728 48.2014 29.7387 47.3908 29.76C47.1774 29.76 46.9108 29.76 46.5908 29.76C46.2921 29.7813 45.9508 29.8027 45.5668 29.824C44.9054 29.8453 44.1801 29.8667 43.3908 29.888C42.6228 29.9093 41.8868 29.92 41.1828 29.92C40.4788 29.9413 39.9134 29.9413 39.4868 29.92ZM67.35 23.04C66.902 23.2533 66.4647 23.3493 66.038 23.328C65.6327 23.2853 65.3873 23.0933 65.302 22.752C65.2593 22.56 65.302 22.3893 65.43 22.24C65.558 22.0693 65.7287 21.9093 65.942 21.76C67.0513 21.056 68.1713 20.1707 69.302 19.104C70.4327 18.016 71.4993 16.8213 72.502 15.52C73.5047 14.1973 74.3793 12.8107 75.126 11.36C75.894 9.90933 76.47 8.46933 76.854 7.04C76.8967 6.80533 76.8113 6.688 76.598 6.688C76.0007 6.70933 75.3713 6.73067 74.71 6.752C74.0487 6.77333 73.526 6.80533 73.142 6.848C72.5447 6.89067 71.8727 6.95467 71.126 7.04C70.4007 7.104 69.718 7.2 69.078 7.328C69.0567 7.328 69.0353 7.328 69.014 7.328C68.6513 7.41333 68.3953 7.456 68.246 7.456C68.118 7.43467 67.9367 7.31733 67.702 7.104C67.5527 6.976 67.318 6.74133 66.998 6.4C66.6993 6.05867 66.4967 5.792 66.39 5.6C66.3473 5.408 66.4327 5.184 66.646 4.928C66.8593 4.65067 67.0513 4.512 67.222 4.512C68.0113 4.66133 68.918 4.75733 69.942 4.8C70.9873 4.84267 71.926 4.84267 72.758 4.8C73.398 4.75733 74.0487 4.704 74.71 4.64C75.3713 4.576 75.958 4.49067 76.47 4.384C77.0033 4.27733 77.366 4.17067 77.558 4.064C77.7073 4 77.8353 3.97867 77.942 4C78.0487 4 78.1553 4.02133 78.262 4.064C78.2833 4.064 78.294 4.064 78.294 4.064C78.6353 4.17067 79.0407 4.32 79.51 4.512C80.0007 4.68267 80.3847 4.82133 80.662 4.928C81.0247 5.056 81.1207 5.33333 80.95 5.76C80.8647 6.03733 80.7047 6.44267 80.47 6.976C80.2567 7.488 80.0753 7.92533 79.926 8.288C79.4353 9.54667 78.7633 10.9013 77.91 12.352C77.0567 13.8027 76.0647 15.232 74.934 16.64C73.8247 18.0267 72.6193 19.2853 71.318 20.416C70.038 21.5467 68.7153 22.4213 67.35 23.04ZM85.974 28.96C85.6113 28.96 85.3767 28.6933 85.27 28.16C85.206 27.7973 85.1527 27.36 85.11 26.848C85.0887 26.336 85.078 25.8347 85.078 25.344C85.078 24.8533 85.078 24.4693 85.078 24.192V5.28C85.078 5.23733 85.078 5.17333 85.078 5.088C85.078 4.34133 85.014 3.75467 84.886 3.328C84.7793 2.90133 84.3847 2.48533 83.702 2.08C83.574 1.99467 83.4567 1.89867 83.35 1.792C83.2433 1.68533 83.19 1.55733 83.19 1.408C83.19 1.17333 83.3073 0.906665 83.542 0.607998C83.7767 0.309331 84.0647 0.159998 84.406 0.159998C84.6407 0.159998 84.9607 0.223998 85.366 0.351999C85.7713 0.458666 86.1873 0.607999 86.614 0.799999C87.0407 0.970665 87.4033 1.152 87.702 1.344C88.1073 1.6 88.31 1.856 88.31 2.112C88.2887 2.38933 88.2353 2.848 88.15 3.488C88.086 4.10667 88.054 4.704 88.054 5.28L88.022 24.032C88.022 24.4373 87.99 24.9173 87.926 25.472C87.862 26.0267 87.7447 26.5707 87.574 27.104C87.4247 27.6373 87.2113 28.0747 86.934 28.416C86.678 28.7787 86.358 28.96 85.974 28.96ZM93.8892 19.104C93.4199 19.2107 93.0786 19.2427 92.8652 19.2C92.6732 19.1573 92.4599 19.0507 92.2252 18.88C92.0972 18.7733 91.9052 18.6133 91.6492 18.4C91.4146 18.1867 91.1799 17.9733 90.9452 17.76C90.7319 17.5467 90.6039 17.3867 90.5612 17.28C90.5186 17.1093 90.6146 16.864 90.8492 16.544C91.0839 16.224 91.3292 16.0747 91.5852 16.096C92.2679 16.2453 93.0786 16.3627 94.0173 16.448C94.9773 16.512 95.9906 16.5547 97.0573 16.576C98.0173 16.576 99.0733 16.576 100.225 16.576C101.377 16.5547 102.54 16.5333 103.713 16.512L103.585 13.024C102.775 13.0453 101.943 13.0667 101.089 13.088C100.257 13.1093 99.5746 13.12 99.0413 13.12C98.5506 13.12 98.1026 12.9493 97.6973 12.608C97.2919 12.2667 97.0893 11.6693 97.0893 10.816V8.8C97.0679 8.56533 96.9506 8.37333 96.7372 8.224C96.4812 8.01067 96.2679 7.82933 96.0972 7.68C95.9479 7.53067 95.8626 7.40267 95.8412 7.296C95.8626 7.12533 95.9479 6.912 96.0972 6.656C96.2679 6.4 96.4599 6.26133 96.6733 6.24C97.1639 6.304 97.7293 6.35733 98.3693 6.4C99.0306 6.44267 99.5639 6.464 99.9692 6.464C100.396 6.464 100.972 6.464 101.697 6.464C102.444 6.44267 103.255 6.42133 104.129 6.4C105.025 6.35733 105.932 6.31467 106.849 6.272C107.767 6.22933 108.609 6.176 109.377 6.112L109.505 3.872C109.527 3.68 109.505 3.57333 109.441 3.552C109.377 3.50933 109.281 3.488 109.153 3.488C108.919 3.488 108.481 3.49867 107.841 3.52C107.223 3.52 106.519 3.54133 105.729 3.584C104.961 3.62667 104.204 3.66933 103.457 3.712C102.732 3.73333 102.156 3.76533 101.729 3.808C101.409 3.82933 100.993 3.872 100.481 3.936C99.9693 3.97867 99.5106 4.032 99.1053 4.096C98.6786 4.16 98.3692 4.192 98.1772 4.192C97.9852 4.17067 97.7932 4.08533 97.6012 3.936C97.3879 3.76533 97.1212 3.53067 96.8012 3.232C96.5026 2.93333 96.3319 2.74133 96.2892 2.656C96.2466 2.44267 96.3106 2.208 96.4812 1.952C96.6732 1.696 96.8866 1.54667 97.1213 1.504C97.6759 1.61067 98.2413 1.696 98.8173 1.76C99.4146 1.80267 100.097 1.824 100.865 1.824C101.633 1.824 102.561 1.81333 103.649 1.792C104.033 1.792 104.513 1.78133 105.089 1.76C105.687 1.71733 106.295 1.67467 106.913 1.632C107.532 1.568 108.097 1.504 108.609 1.44C109.121 1.35467 109.505 1.26933 109.761 1.184C109.911 1.12 110.017 1.088 110.081 1.088C110.145 1.088 110.241 1.09867 110.369 1.12C110.412 1.14133 110.444 1.152 110.465 1.152L112.769 1.632C113.111 1.76 113.217 2.016 113.089 2.4C113.047 2.57067 112.961 2.85866 112.833 3.264C112.705 3.66933 112.567 4.11733 112.417 4.608C112.289 5.07733 112.172 5.504 112.065 5.888C112.3 6.016 112.513 6.16533 112.705 6.336C112.919 6.50667 113.025 6.64533 113.025 6.752C113.025 7.008 112.951 7.296 112.801 7.616C112.673 7.91467 112.481 8.10667 112.225 8.192C111.543 8.17067 110.679 8.17067 109.633 8.192C108.588 8.192 107.489 8.20267 106.337 8.224C105.185 8.24533 104.065 8.27733 102.977 8.32C101.889 8.34133 100.951 8.37333 100.161 8.416V10.336C100.161 10.6773 100.204 10.8907 100.289 10.976C100.396 11.0613 100.62 11.1147 100.961 11.136C101.772 11.1573 102.721 11.1573 103.809 11.136C104.919 11.1147 106.113 11.072 107.393 11.008C108.588 10.944 109.623 10.848 110.497 10.72C111.372 10.5707 111.969 10.4427 112.289 10.336C112.524 10.2507 112.705 10.2507 112.833 10.336C112.983 10.4 113.1 10.496 113.185 10.624C113.356 10.8373 113.516 11.0827 113.665 11.36C113.836 11.616 113.921 11.7973 113.921 11.904C113.921 12.0747 113.793 12.288 113.537 12.544C113.303 12.8 113.111 12.928 112.961 12.928C112.663 12.9067 112.161 12.896 111.457 12.896C110.775 12.8747 109.996 12.8747 109.121 12.896C108.268 12.896 107.447 12.9067 106.657 12.928L106.497 16.416C107.308 16.3733 108.076 16.3413 108.801 16.32C109.527 16.2773 110.167 16.2453 110.721 16.224C112.044 16.1387 113.271 16.032 114.401 15.904C115.553 15.776 116.46 15.6267 117.121 15.456C117.548 15.3493 117.836 15.3173 117.985 15.36C118.156 15.3813 118.316 15.5093 118.465 15.744C118.615 15.9573 118.775 16.256 118.945 16.64C119.116 17.0027 119.201 17.2587 119.201 17.408C119.18 17.6427 119.02 17.8773 118.721 18.112C118.444 18.3253 118.241 18.432 118.113 18.432C117.516 18.368 116.929 18.3253 116.353 18.304C115.799 18.2613 115.137 18.2293 114.369 18.208C113.623 18.1867 112.652 18.176 111.457 18.176C110.241 18.176 108.865 18.1973 107.329 18.24C105.793 18.2613 104.257 18.304 102.721 18.368C101.185 18.432 99.7986 18.496 98.5612 18.56C97.6439 18.6027 96.8013 18.6773 96.0332 18.784C95.2652 18.8693 94.5506 18.976 93.8892 19.104ZM111.457 31.04C111.159 31.0613 110.945 30.9973 110.817 30.848C110.711 30.6987 110.636 30.5387 110.593 30.368C110.508 30.0053 110.455 29.6 110.433 29.152C110.412 28.7253 110.401 28.2987 110.401 27.872L110.337 23.456C110.337 23.264 110.295 23.1467 110.209 23.104C110.124 23.04 110.017 23.008 109.889 23.008C109.313 23.0293 108.353 23.0507 107.009 23.072C105.687 23.0933 104.268 23.1573 102.753 23.264C102.028 23.3067 101.324 23.3707 100.641 23.456C99.9799 23.52 99.3719 23.616 98.8173 23.744C98.4119 23.8507 98.1239 23.8933 97.9532 23.872C97.8039 23.8293 97.6332 23.744 97.4412 23.616C97.1639 23.424 96.8546 23.1893 96.5132 22.912C96.1719 22.6133 95.9479 22.3573 95.8412 22.144C95.8199 21.9307 95.9159 21.6853 96.1293 21.408C96.3426 21.1307 96.5986 20.9813 96.8973 20.96C97.4092 21.088 98.0706 21.184 98.8813 21.248C99.6919 21.2907 100.46 21.312 101.185 21.312C102.188 21.312 103.201 21.3013 104.225 21.28C105.271 21.2587 106.284 21.2053 107.265 21.12C107.884 21.0773 108.449 21.0133 108.961 20.928C109.495 20.8427 109.964 20.7253 110.369 20.576C110.54 20.512 110.668 20.48 110.753 20.48C110.839 20.4587 110.977 20.4693 111.169 20.512L113.313 20.896C113.505 20.9173 113.633 20.9707 113.697 21.056C113.761 21.1413 113.772 21.2907 113.729 21.504C113.687 21.696 113.644 21.9733 113.601 22.336C113.58 22.6987 113.559 23.072 113.537 23.456C113.516 23.84 113.495 24.1707 113.473 24.448L113.409 27.392C113.409 27.9467 113.335 28.5013 113.185 29.056C113.036 29.6107 112.812 30.0693 112.513 30.432C112.236 30.816 111.884 31.0187 111.457 31.04Z" fill="#2D2B29"/>
</svg>
