<svg width="36" height="36" viewBox="0 0 36 36" fill="none" xmlns="http://www.w3.org/2000/svg">
<path d="M9.88085 26.1191C12.1277 28.3149 14.834 29.4128 18 29.4128C21.166 29.4128 23.8468 28.3149 26.0426 26.1191C28.2894 23.8723 29.4128 21.1659 29.4128 18C29.4128 14.834 28.2894 12.1532 26.0426 9.95743C23.8468 7.71062 21.166 6.58722 18 6.58722C14.834 6.58722 12.1277 7.71062 9.88085 9.95743C7.68511 12.1532 6.58723 14.834 6.58723 18C6.58723 21.1659 7.68511 23.8723 9.88085 26.1191ZM32.6298 16.3915H36V19.6085H32.6298C32.2723 23.0298 30.8681 25.9659 28.417 28.417C25.966 30.8681 23.0298 32.2723 19.6085 32.6298V36H16.3915V32.6298C12.9702 32.2723 10.034 30.8681 7.58298 28.417C5.13191 25.9659 3.72766 23.0298 3.37021 19.6085H0V16.3915H3.37021C3.72766 12.9702 5.13191 10.034 7.58298 7.58296C10.034 5.1319 12.9702 3.72764 16.3915 3.3702V-1.52588e-05H19.6085V3.3702C23.0298 3.72764 25.966 5.1319 28.417 7.58296C30.8681 10.034 32.2723 12.9702 32.6298 16.3915ZM13.4043 13.4042C14.6809 12.1276 16.2128 11.4893 18 11.4893C19.7872 11.4893 21.3191 12.1276 22.5957 13.4042C23.8723 14.6808 24.5106 16.2127 24.5106 18C24.5106 19.7872 23.8723 21.3191 22.5957 22.5957C21.3191 23.8723 19.7872 24.5106 18 24.5106C16.2128 24.5106 14.6809 23.8723 13.4043 22.5957C12.1277 21.3191 11.4894 19.7872 11.4894 18C11.4894 16.2127 12.1277 14.6808 13.4043 13.4042Z" fill="#413E3C"/>
</svg>
